PathFileType	4	(X/Y/Z)	C:\Users\Basilio\Documents\Thesis Gigler\squatting_fais\c3dfiles\019\SLS_front_pre3\markers_experimental.trc
DataRate	CameraRate	NumFrames	NumMarkers	Units	OrigDataRate	OrigDataStartFrame	OrigNumFrames
200.000000	200.000000	4	59	mm	200.000000	987	1316
Frame#	Time	LBHD			RBHD			C7			T10			LSHO			LUUPA			LMUPA			LDUPA			LLEP			LMEP			LRAD			LUL			LRFIN			RSHO			RUPA1			RMUPA			RDUPA			RLEP			RMEP			RRAD			RUL			RUFIN			LASI			RASI			USACR			LSACR			RSACR			LTHI1			LTHI2			LTHI3			LTHI4			LLFC			LTIB1			LTIB2			LTIB3			LTIB4			LLMAL			LMMAL			LHEE			LMT1			LMT2			LMT5			RTHI			RTHI2			RTHI3			RTHI4			RLFC			RTIB1			RTIB2			RTIB3			RTIB4			RLMAL			RMMAL			RHEE			RMT1			RMT2			RMT5			FHD			CLAV			
		X1	Y1	Z1	X2	Y2	Z2	X3	Y3	Z3	X4	Y4	Z4	X5	Y5	Z5	X6	Y6	Z6	X7	Y7	Z7	X8	Y8	Z8	X9	Y9	Z9	X10	Y10	Z10	X11	Y11	Z11	X12	Y12	Z12	X13	Y13	Z13	X14	Y14	Z14	X15	Y15	Z15	X16	Y16	Z16	X17	Y17	Z17	X18	Y18	Z18	X19	Y19	Z19	X20	Y20	Z20	X21	Y21	Z21	X22	Y22	Z22	X23	Y23	Z23	X24	Y24	Z24	X25	Y25	Z25	X26	Y26	Z26	X27	Y27	Z27	X28	Y28	Z28	X29	Y29	Z29	X30	Y30	Z30	X31	Y31	Z31	X32	Y32	Z32	X33	Y33	Z33	X34	Y34	Z34	X35	Y35	Z35	X36	Y36	Z36	X37	Y37	Z37	X38	Y38	Z38	X39	Y39	Z39	X40	Y40	Z40	X41	Y41	Z41	X42	Y42	Z42	X43	Y43	Z43	X44	Y44	Z44	X45	Y45	Z45	X46	Y46	Z46	X47	Y47	Z47	X48	Y48	Z48	X49	Y49	Z49	X50	Y50	Z50	X51	Y51	Z51	X52	Y52	Z52	X53	Y53	Z53	X54	Y54	Z54	X55	Y55	Z55	X56	Y56	Z56	X57	Y57	Z57	X58	Y58	Z58	X59	Y59	Z59	

988	4.935	-382.0558166503907	1606.202880859375	-782.4741210937502	-385.8713684082032	1598.165771484375	-642.7233276367189	-417.7191772460939	1446.17333984375	-703.3093872070314	-519.0967407226564	1175.187255859375	-709.3262329101564	-346.4761047363282	1458.654663085938	-826.2031250000002	-227.0076446533204	1444.468994140625	-883.5214843750002	-196.9826202392579	1440.583374023438	-886.0151977539065	-160.3504180908203	1443.946166992188	-885.889587402344	-88.82556915283205	1424.778442382813	-924.1502075195315	-88.7772903442383	1364.682006835938	-920.0432128906252	162.3688659667969	1423.727661132813	-844.7207031250002	157.4259796142578	1434.559326171875	-911.096618652344	232.0567016601563	1443.52783203125	-842.285827636719	-334.7983703613282	1449.68701171875	-597.9957885742189	-219.087875366211	1407.932861328125	-488.2031250000001	-197.4409942626954	1430.485473632813	-526.4025878906251	-149.9224548339844	1407.957153320313	-488.9769897460939	-74.00267028808595	1409.885620117188	-501.5575561523439	-76.87215423583986	1353.000244140625	-507.2373962402345	157.3118438720703	1434.4013671875	-602.0589599609376	172.5680236816407	1444.564453125	-538.4863281250001	240.4562683105469	1456.542602539063	-610.5513305664064	-418.7590637207032	967.0866699218752	-837.5657958984377	-402.9440307617189	941.8630981445315	-632.2956542968751	-559.2129516601564	1036.868774414063	-717.9649658203126	-571.5326538085939	1007.739318847656	-747.2470092773439	-565.7135009765626	1004.65283203125	-690.0002441406251	-339.2668151855469	782.1751098632815	-928.8973388671877	-256.3906250000001	763.6918945312501	-922.8226318359377	-232.0057067871094	799.6481933593752	-904.3621826171877	-230.5167846679688	708.3798828125001	-920.4497070312502	-166.1365966796875	636.2596435546876	-908.1138916015627	-56.43861007690431	535.9412231445314	-880.0522460937502	-90.5896453857422	471.4075927734376	-929.7317504882815	-55.21298980712892	484.4142456054689	-908.5115356445315	-20.21479988098145	412.3753662109376	-874.8609008789065	-28.73279190063477	267.6617431640626	-896.842956542969	-8.521563529968263	282.8922729492188	-815.7888183593752	-77.05482482910158	224.3858032226563	-838.5654907226565	129.7644500732422	235.2705383300782	-826.1799926757815	133.867431640625	230.0628509521485	-865.236755371094	93.57363891601564	193.9494018554688	-911.3491821289065	-396.6835937500001	748.5567626953126	-569.5008544921876	-337.5230407714844	719.9923095703126	-582.7301025390626	-317.4895324707032	739.8752441406251	-602.6892089843751	-321.8271789550782	641.4665527343751	-586.2738037109376	-290.0108032226563	490.9134521484376	-633.2014160156251	-268.9684448242188	317.8759460449219	-710.3212890625001	-331.3527526855469	241.5260772705079	-659.2023315429689	-299.9775085449219	238.0335235595704	-694.2542724609376	-318.6980285644532	203.1884002685547	-738.2779541015626	-389.0666503906251	125.1500854492188	-697.2397460937501	-375.3256835937501	134.2151947021485	-774.0604248046877	-455.0887756347657	105.2266006469727	-750.8229370117189	-257.6996459960938	55.52911758422853	-774.8396606445315	-249.5427551269532	55.22198867797853	-732.3653564453126	-292.8811645507813	50.39703750610353	-674.7488403320314	-254.4764099121094	1638.18603515625	-638.7708129882814	-271.0366210937501	1397.352783203125	-718.3616333007814	
989	4.94	-382.4280700683594	1608.041137695313	-782.572204589844	-386.4609985351564	1600.104614257813	-642.7715454101564	-418.3969726562501	1447.782836914063	-703.5116577148439	-518.7490234375001	1176.5625	-709.3239135742189	-346.9270935058594	1460.33740234375	-826.3343505859377	-227.4878082275391	1446.134033203125	-883.6489257812502	-196.9578094482422	1441.8564453125	-886.266052246094	-160.8048553466797	1445.532958984375	-885.7263793945315	-89.36639404296876	1426.289794921875	-924.2907714843752	-89.25279998779298	1366.1279296875	-920.126159667969	161.7025299072266	1425.22607421875	-844.7810058593752	156.9658660888672	1435.845947265625	-911.2550048828127	231.5196533203126	1444.759399414063	-842.210144042969	-334.8260803222657	1451.573486328125	-598.0099487304689	-219.5404815673829	1409.414672851563	-488.274139404297	-198.3331604003907	1432.313110351563	-526.4452514648439	-150.4423980712891	1409.420532226563	-488.8153686523439	-74.73171997070314	1411.341552734375	-501.2897033691407	-77.42983245849611	1354.5029296875	-507.2078857421876	157.0722808837891	1435.865234375	-602.0030517578126	172.0327606201172	1445.82666015625	-538.3173217773439	239.844467163086	1457.766723632813	-609.4531860351564	-418.2384033203126	968.6311035156252	-837.6741943359377	-402.0907592773439	943.3760986328127	-632.3806762695314	-558.6312866210939	1038.190185546875	-717.8358154296876	-570.7767944335939	1008.900268554688	-747.1598510742189	-565.1111450195314	1005.884704589844	-689.7878417968751	-338.9847106933594	783.659118652344	-928.9561157226565	-255.9120025634766	764.9617919921876	-922.962829589844	-231.5034637451172	800.8172607421877	-904.5292968750002	-230.1648559570313	709.7059326171876	-920.434265136719	-165.8819580078125	637.2717285156251	-908.131042480469	-56.54328918457033	536.6745605468751	-880.1243286132815	-91.03814697265626	472.1481323242189	-929.6464843750002	-55.62767791748048	485.1527404785157	-908.4851684570315	-20.7773609161377	412.8595275878907	-874.752136230469	-29.96061706542969	268.3539733886719	-896.6945800781252	-9.589359283447267	283.5405273437501	-815.5952758789065	-87.39743804931642	229.964096069336	-842.396911621094	128.3746490478516	235.1692962646485	-825.807067871094	132.39599609375	229.7036743164063	-864.9228515625002	92.35544586181642	193.6183166503907	-910.7777099609377	-396.1633911132814	749.6513061523439	-569.6938476562501	-337.1794738769532	720.7792968750001	-582.8110351562501	-317.2116699218751	740.5509643554689	-603.0493164062501	-320.8592529296876	641.2811889648439	-586.7244873046876	-291.0090332031251	491.3173828125001	-633.3728027343751	-269.7071228027344	318.3660888671876	-710.5734863281251	-331.7728576660157	241.7922821044922	-659.2659301757814	-300.4862060546876	238.3664855957032	-694.4055175781251	-318.9298095703126	203.3502960205079	-738.3461914062501	-389.1454162597657	125.1476135253907	-697.3545532226564	-375.4652404785157	134.0778198242188	-774.2254638671877	-455.1716613769532	105.2587280273438	-750.8478393554689	-257.7067871093751	55.51179504394533	-774.9036254882815	-249.4821166992188	55.26869964599611	-732.5325927734376	-292.8522033691407	50.46771621704103	-674.8103637695314	-255.0567779541016	1640.099731445313	-638.8909301757814	-271.9193725585938	1398.973510742188	-718.2303466796876	
990	4.945	-382.9973754882813	1609.93310546875	-782.6680297851565	-386.9176635742189	1601.809692382813	-642.8330688476564	-418.7569274902345	1449.522094726563	-703.5388183593751	-518.5560913085939	1177.8994140625	-709.2855834960939	-347.4881286621094	1462.178955078125	-826.5139160156252	-228.1556091308594	1447.8037109375	-883.8800048828127	-197.5374755859376	1443.939086914063	-886.3966064453127	-161.2366485595703	1447.124633789063	-885.976013183594	-89.92233276367189	1427.885620117188	-924.477478027344	-89.79779052734376	1367.696533203125	-920.1426391601565	161.2351684570313	1426.4228515625	-844.7798461914065	156.9505767822266	1437.153076171875	-911.0318603515627	231.0558319091797	1446.080200195313	-842.3604125976565	-335.9306640625001	1453.25634765625	-597.8897705078126	-220.2301940917969	1411.127807617188	-488.3294067382814	-198.7573242187501	1433.7998046875	-526.4233398437501	-151.0276031494141	1410.946533203125	-489.0441894531251	-75.1265106201172	1412.865966796875	-501.3833312988282	-78.09380340576173	1355.894775390625	-507.0923461914064	156.656723022461	1437.213134765625	-601.7008666992189	171.5646514892578	1447.157958984375	-538.1055908203126	239.6242065429688	1459.154296875	-609.0317993164064	-417.5571289062501	970.1071777343752	-837.7874145507815	-401.284881591797	944.7235107421877	-632.5521240234376	-557.8810424804689	1039.607177734375	-717.6583251953126	-569.9405517578126	1010.068115234375	-746.9978637695314	-564.1278076171876	1007.350036621094	-689.6758422851564	-338.5022277832032	784.978942871094	-928.9445800781252	-255.5603179931641	766.2633056640626	-923.0576171875002	-230.9353637695313	802.0184326171877	-904.6611938476565	-229.6958160400391	710.7911376953126	-920.4604492187502	-165.5753173828125	638.3061523437501	-908.0916137695315	-56.5891571044922	537.3470458984376	-880.1862792968752	-91.67636108398439	472.9741210937501	-929.5766601562502	-56.06189727783205	485.8074340820314	-908.473327636719	-20.95584678649903	413.4393920898439	-875.113220214844	-30.9964714050293	268.8724975585938	-896.3643188476565	-10.64155960083008	284.2423706054688	-815.3112792968752	-88.44192504882814	230.7519226074219	-841.6979980468752	127.0760116577149	234.9322509765626	-825.516540527344	131.0290222167969	229.4604034423829	-864.556335449219	91.49993133544923	193.2201690673829	-910.289733886719	-395.7094726562501	750.8131103515626	-569.8265991210939	-336.9993286132813	721.4201660156251	-583.3823852539064	-316.7900085449219	741.1165771484376	-603.4611206054689	-321.9689025878907	642.6041870117189	-586.8375244140626	-292.1865539550782	491.7568664550782	-633.5905761718751	-270.5403747558594	318.7456665039063	-710.8296508789064	-332.1756591796876	241.9625701904297	-659.3476562500001	-300.8272705078126	238.6330718994141	-694.6541137695314	-319.2464599609376	203.5083007812501	-738.5635986328126	-389.0528564453126	125.0628967285157	-697.4603271484376	-375.7482910156251	134.0418090820313	-774.4129638671877	-455.2520751953126	105.1566467285157	-750.8612670898439	-257.7644958496094	55.5072593688965	-774.9378051757815	-249.6080932617188	55.32583618164064	-732.4284057617189	-292.7873840332032	50.53982543945314	-674.8352050781251	-255.6387939453126	1641.92529296875	-638.7355346679689	-272.5695495605469	1400.677490234375	-718.1973876953126	
991	4.95	-383.4956359863282	1611.765625	-782.6831665039065	-387.6119079589845	1603.706176757813	-642.9794311523439	-419.6240844726564	1451.208618164063	-703.6470336914064	-518.2841796875001	1179.25244140625	-709.2258300781251	-347.9380187988282	1463.85986328125	-826.6185302734377	-228.6300964355469	1449.51953125	-883.9724121093752	-198.2216949462891	1445.493041992188	-886.5457153320315	-161.8551635742188	1448.751342773438	-886.0922851562502	-90.45053863525392	1429.401733398438	-924.6015625000002	-90.51000213623048	1369.197387695313	-920.2005004882815	160.6502685546875	1427.73828125	-844.8355712890627	156.0634918212891	1438.429077148438	-911.4143066406252	230.6504516601563	1447.302001953125	-842.3408203125002	-336.2847290039063	1454.862182617188	-597.8206787109376	-220.7279663085938	1412.598510742188	-488.2304077148439	-198.8936004638672	1435.145874023438	-526.3143310546876	-151.6072387695313	1412.558959960938	-488.8856506347657	-75.86365509033205	1414.322143554688	-501.3053283691407	-78.61998748779298	1357.365356445313	-507.0932006835939	156.1637878417969	1438.1962890625	-602.0523681640626	171.1560974121094	1448.307861328125	-537.8483886718751	238.3717193603516	1460.622924804688	-608.6014404296876	-417.0539550781251	971.6875610351565	-837.897888183594	-400.4432678222657	946.1562500000002	-632.6496582031251	-557.3122558593751	1040.922973632813	-717.5217285156251	-569.0233764648439	1011.385070800781	-746.8342895507814	-563.2684326171876	1008.592651367188	-689.4497070312501	-337.8662109375001	786.1321411132815	-928.9675292968752	-255.0709228515626	767.4351806640626	-923.1353759765627	-230.4146575927735	803.2368164062502	-904.8416748046877	-229.3026885986329	711.8965454101564	-920.493591308594	-165.331039428711	639.4164428710939	-908.122253417969	-56.69633865356447	538.0684814453126	-880.1873779296877	-92.18997192382814	473.9158935546876	-929.3853149414065	-56.4472007751465	486.516082763672	-908.4946289062502	-21.14405250549317	414.2019348144532	-875.041687011719	-31.98418045043946	269.4774475097657	-896.106140136719	-11.54961395263672	284.9313659667969	-815.1345214843752	-89.02602386474611	231.4835052490235	-841.4421386718752	125.826889038086	234.9301300048829	-825.135681152344	129.6934661865235	229.2121887207032	-864.2738037109377	89.11824035644533	193.1213531494141	-909.648376464844	-395.3220214843751	751.8687744140626	-570.0346069335939	-336.6886901855469	722.2312622070314	-583.5690917968751	-316.3684082031251	741.7120361328126	-603.7847900390626	-322.1490478515626	643.2838134765626	-587.1081542968751	-293.4006958007813	492.3107910156251	-634.0462036132814	-271.2940368652344	319.1605224609376	-711.1217651367189	-332.6083068847657	242.1224670410157	-659.5576782226564	-301.0437622070313	238.7788848876954	-694.7756958007814	-319.7577514648438	203.6919708251954	-738.7777709960939	-389.2564086914064	125.116081237793	-697.6088867187501	-375.9642944335938	133.9857635498047	-774.5711059570315	-455.2379455566407	105.1644515991211	-750.8713378906251	-257.7442321777344	55.51245880126955	-774.952087402344	-249.6175842285157	55.41113662719728	-732.5806274414064	-292.8589782714844	50.60982131958009	-674.9204101562501	-256.3026428222657	1643.964111328125	-638.8795166015626	-273.6035156250001	1402.315307617188	-717.9906616210939	
